With: Daniel Craig, Rachel Weisz and Naomi Watts

De succesvolle uitgever Will Atenton (Daniel Craig) stopt met zijn baan in New York om, samen met zijn vrouw Libby (Rachel Weisz) en twee dochters, te verhuizen naar een schilderachtig dorpje in New England. Maar dan komen ze erachter dat in hun perfecte huis een moeder en haar kinderen zijn vermoord. Het hele dorp is van mening dat haar man, de enige overlevende, de dader is. Wanneer Will deze tragedie onderzoekt, komt zijn enige aanwijzing van Ann Paterson (Naomi Watts). Zij is een buurvrouw die goed bevriend was met de familie. Will en Ann proberen samen het verontrustende mysterie op te lossen.

Soon after moving into their seemingly idyllic new home, a family learns of a brutal crime committed against former residents of the dwelling. 

------------------------ Dutch Friends ------------------------
---------------------------------------------------------------
- Bezoek ook eens mijn vrienden op:  http://www.Film-Test.nl --
----- voor mijn Nederlandse Sync. ondertitels ---- en meer ----
------- http://www.Film-Test.nl ---- voor Films en meer -------
---------------------------------------------------------------

General:

Complete name                    : Dream HouseDream House.avi
Format                           : AVI
Format/Info                      : Audio Video Interleave
File size                        : 1.02 GiB
Duration                         : 1h 28mn
Overall bit rate                 : 1 664 Kbps

Video:

Format                           : MPEG-4 Visual
Format profile                   : Simple@L3
Format settings, BVOP            : No
Format settings, QPel            : No
Format settings, GMC             : No warppoints
Format settings, Matrix          : Default (H.263)
Codec ID                         : XVID
Codec ID/Hint                    : XviD
Duration                         : 1h 28mn
Bit rate                         : 1 206 Kbps
Width                            : 720 pixels
Height                           : 304 pixels
Display aspect ratio             : 2.35:1
Frame rate                       : 25.000 fps
Color space                      : YUV
Chroma subsampling               : 4:2:0
Bit depth                        : 8 bits
Scan type                        : Progressive
Compression mode                 : Lossy
Bits/(Pixel*Frame)               : 0.220
Stream size                      : 759 MiB (72%)
Writing library                  : XviD 1.1.2 (UTC 2006-11-01)

Audio:

Format                           : AC-3
Format/Info                      : Audio Coding 3
Mode extension                   : CM (complete main)
Codec ID                         : 2000
Duration                         : 1h 28mn
Bit rate mode                    : Constant
Bit rate                         : 448 Kbps
Channel(s)                       : 6 channels
Channel positions                : Front: L C R, Side: L R, LFE
Sampling rate                    : 48.0 KHz
Bit depth                        : 16 bits
Compression mode                 : Lossy
Stream size                      : 282 MiB (27%)
Alignment                        : Aligned on interleaves
Interleave, duration             : 32 ms (0.80 video frame)
Interleave, preload duration     : 288 ms


